<?xml version="1.0" standalone="no"?>
<!DOCTYPE svg PUBLIC "-//W3C//DTD SVG 1.1//EN" "http://www.w3.org/Graphics/SVG/1.1/DTD/svg11.dtd" >
<svg xmlns="http://www.w3.org/2000/svg">
<metadata>
Created by FontForge 20120731 at Fri Apr 28 11:27:17 2017
 By admin
</metadata>
<defs>
<font id="iconfont" horiz-adv-x="1024" >
  <font-face 
    font-family="iconfont"
    font-weight="500"
    font-stretch="normal"
    units-per-em="1024"
    panose-1="2 0 6 3 0 0 0 0 0 0"
    ascent="896"
    descent="-128"
    x-height="792"
    bbox="0 -212 1024 896"
    underline-thickness="0"
    underline-position="0"
    unicode-range="U+0078-E7DC"
  />
<missing-glyph 
 />
    <glyph glyph-name=".notdef" 
 />
    <glyph glyph-name=".notdef" 
 />
    <glyph glyph-name=".null" horiz-adv-x="0" 
 />
    <glyph glyph-name="nonmarkingreturn" horiz-adv-x="341" 
 />
    <glyph glyph-name="x" unicode="x" horiz-adv-x="1001" 
d="M281 543q-27 -1 -53 -1h-83q-18 0 -36.5 -6t-32.5 -18.5t-23 -32t-9 -45.5v-76h912v41q0 16 -0.5 30t-0.5 18q0 13 -5 29t-17 29.5t-31.5 22.5t-49.5 9h-133v-97h-438v97zM955 310v-52q0 -23 0.5 -52t0.5 -58t-10.5 -47.5t-26 -30t-33 -16t-31.5 -4.5q-14 -1 -29.5 -0.5
t-29.5 0.5h-32l-45 128h-439l-44 -128h-29h-34q-20 0 -45 1q-25 0 -41 9.5t-25.5 23t-13.5 29.5t-4 30v167h911zM163 247q-12 0 -21 -8.5t-9 -21.5t9 -21.5t21 -8.5q13 0 22 8.5t9 21.5t-9 21.5t-22 8.5zM316 123q-8 -26 -14 -48q-5 -19 -10.5 -37t-7.5 -25t-3 -15t1 -14.5
t9.5 -10.5t21.5 -4h37h67h81h80h64h36q23 0 34 12t2 38q-5 13 -9.5 30.5t-9.5 34.5q-5 19 -11 39h-368zM336 498v228q0 11 2.5 23t10 21.5t20.5 15.5t34 6h188q31 0 51.5 -14.5t20.5 -52.5v-227h-327z" />
    <glyph glyph-name="bianji" unicode="&#xe646;" 
d="M949 -59h-831q-15 0 -25 10.5t-10 24.5v687q0 14 10 24t25 10h578q14 0 24 -10t10 -24.5t-10 -24.5t-24 -10h-544v-618h763v436q0 14 10 24t24 10t24 -10t10 -24v-470q0 -14 -10 -24.5t-24 -10.5zM533 285q-16 0 -26 12q-9 11 -8 25.5t12 23.5l416 343q11 9 25 8
t23.5 -12t8 -25.5t-12.5 -23.5l-416 -343q-9 -8 -22 -8z" />
    <glyph glyph-name="jiantoushang1" unicode="&#xe6a2;" 
d="M512 556l-452 -453l60 -59l392 392l392 -392l60 59z" />
    <glyph glyph-name="bianji1" unicode="&#xe62f;" 
d="M768 -144h-575q-40 0 -68 28t-28 67v639q0 40 28 68t68 28h447q13 0 22.5 -9.5t9.5 -22.5t-9.5 -22.5t-22.5 -9.5h-447q-14 0 -23 -9.5t-9 -22.5v-639q0 -13 9 -22.5t23 -9.5h575q13 0 22 9.5t9 22.5v511q0 14 9.5 23t23 9t22.5 -9t9 -23v-511q0 -39 -28 -67t-67 -28v0z
M580 367q-13 0 -22.5 9t-9.5 22.5t9 22.5l318 318q9 9 22.5 9t22.5 -9.5t9 -22.5t-9 -23l-318 -317q-9 -9 -22 -9v0zM448 367h-192q-13 0 -22 9t-9 22.5t9 23t22 9.5h192q13 0 22.5 -9.5t9.5 -23t-9.5 -22.5t-22.5 -9v0zM640 175h-384q-13 0 -22 9.5t-9 22.5t9 22.5t22 9.5
h384q13 0 22.5 -9.5t9.5 -22.5t-9.5 -22.5t-22.5 -9.5v0zM640 175z" />
    <glyph glyph-name="jiantoushang" unicode="&#xe614;" 
d="M512 475v0l392 -392l60 61l-422 421l-30 30l-30 -30l-422 -421l60 -61z" />
    <glyph glyph-name="redian" unicode="&#xe6bf;" 
d="M553 216q-24 0 -38.5 -17t-14.5 -45t14 -45t38 -17t38.5 16t14.5 45q0 30 -14 46.5t-38 16.5zM657 584q1 -7 4 -20t7 -46t3.5 -59.5t-9.5 -51t-28 -31.5q-4 1 -11.5 2.5t-26 12t-32.5 25t-24.5 44t-8.5 66.5t21.5 95t58.5 126q-56 -10 -89 -30q-5 -3 -14.5 -9t-36 -26.5
t-49.5 -43.5t-47.5 -60t-37.5 -76.5t-13 -93t19 -108.5q-4 -1 -9.5 -0.5t-21 7.5t-27.5 20.5t-23 45.5t-13 77q-7 -8 -18 -22.5t-35.5 -59t-38.5 -89t-13 -106.5t27 -116q4 -9 13 -23t40.5 -50t68 -63t96 -48.5t125.5 -19.5q7 0 20 1t50 7.5t71.5 18t76.5 36t73.5 57.5
t55 86.5t27.5 118.5v0q0 7 -0.5 18.5t-5 45.5t-12.5 66.5t-25.5 75.5t-41 78t-61.5 68.5t-85 53.5zM449 77h-20v69h-79v-69h-19v154h19v-67h79v67h20v-154zM605.5 96q-20.5 -22 -53.5 -22t-53 21.5t-20 56.5q0 38 20 60t55 22q32 0 52 -21.5t20 -56.5q0 -38 -20.5 -60z
M739 214h-44v-137h-21v137h-44v17h109v-17z" />
    <glyph glyph-name="shouyezhuyetubiao04" unicode="&#xe61d;" 
d="M742 323l-416 417q-9 9 -22 9t-22 -9t-9 -22t9 -22l394 -395l-394 -394q-9 -9 -9 -22t9 -22t22 -9t22 9l416 416q9 9 9 22t-9 22z" />
    <glyph glyph-name="yonghuming" unicode="&#xe617;" 
d="M214 -197h-1v0v0h1zM1020 -165q4 -8 4 -15q0 -13 -9.5 -22.5t-23 -9.5t-23 9.5t-9.5 22.5h-1q-34 152 -159 252t-287 100t-287 -100t-159 -252h-1q0 -13 -9.5 -22.5t-23 -9.5t-23 9.5t-9.5 22.5q0 7 4 15q30 134 124.5 235.5t227.5 142.5q-77 41 -123.5 115.5
t-46.5 163.5q0 87 43.5 160.5t118.5 116.5t164 43t164 -43t118.5 -116.5t43.5 -160.5q0 -89 -46.5 -163.5t-123.5 -115.5q133 -41 227.5 -142.5t124.5 -235.5v0zM773 492q0 106 -76.5 181t-184.5 75t-184.5 -75t-76.5 -181t76.5 -181t184.5 -75t184.5 75t76.5 181v0z" />
    <glyph glyph-name="iconbaobao" unicode="&#xe600;" 
d="M902 -18l-35 389q-1 29 -17 52.5t-42 34.5q-1 57 -24.5 107.5t-65.5 89.5q-89 80 -214 80t-213 -80q-42 -39 -66 -89.5t-24 -107.5q-26 -11 -42.5 -34.5t-16.5 -52.5l-35 -390v-1q0 -39 28 -67t67 -29h605q39 1 67 29t28 67v1v1zM319 612q77 70 185.5 70t185.5 -70
q66 -60 69 -147h-505h-6q3 85 71 147zM192 368v2q0 18 13.5 32t32.5 14h28h426h79q1 0 2.5 -0.5l1.5 -0.5q4 0 10 -3t10.5 -5l4.5 -2q17 -14 17 -35v-2l11 -113l-6 -4q-27 -26 -81 -53q-82 -40 -179 -50q-18 35 -57.5 35t-58.5 -35q-96 10 -175 48q-52 25 -78 51q-5 4 -11 6
l-1 1l11 114v0v0v0zM807 -66h-605q-18 0 -31.5 13.5t-14.5 31.5l20 215q31 -23 70 -43q89 -43 195 -54q7 -20 24 -33t39 -13t39.5 13t23.5 33q46 5 89 16q58 14 110 40q37 19 67 41l20 -215q-1 -18 -14.5 -31.5t-31.5 -13.5z" />
    <glyph glyph-name="icon098" unicode="&#xe66c;" 
d="M687 -161q-8 0 -14 6t-6 14v810l-282 -282h109q9 0 15 -6t6 -14t-6 -14t-15 -6h-157q-14 0 -19 12.5t5 21.5l350 350q9 10 21.5 5t12.5 -19v-858q0 -8 -6 -14t-14 -6z" />
    <glyph glyph-name="icon099" unicode="&#xe66d;" 
d="M337 -158q-4 0 -8 1q-12 5 -12 19v858q0 8 6 14t14 6t14 -6t6 -14v-810l282 282h-109q-9 0 -15 6t-6 14t6 14t15 6h157q14 0 19 -12.5t-5 -21.5l-350 -351q-6 -5 -14 -5z" />
    <glyph glyph-name="youjiantou" unicode="&#xe621;" 
d="M228 300.5q0 10.5 7 18.5l422 422q8 7 18.5 7t18 -7.5t7.5 -18t-7 -18.5l-404 -404l404 -404q7 -7 7 -17.5t-7.5 -18t-18 -7.5t-18.5 7l-422 422q-7 8 -7 18.5z" />
    <glyph glyph-name="jiantouxia" unicode="&#xe629;" 
d="M958 514q0 -13 -9 -22l-415 -415q-9 -9 -22 -9t-22 9l-415 415q-9 9 -9 22t9.5 22t22 9t21.5 -9l393 -393l393 393q9 9 22 9t22 -9t9 -22v0zM958 514z" />
    <glyph glyph-name="wode" unicode="&#xe601;" 
d="M887 -2q-6 23 -18 48t-25 44t-25 34t-20 23.5l-8 8.5q-29 31 -66.5 54t-60.5 31l-23 8q-3 1 -8 3q64 33 103 95.5t39 136.5q0 109 -77 185.5t-185.5 76.5t-185 -76.5t-76.5 -185.5q0 -75 39 -137.5t103 -95.5l-8 -2q-29 -8 -62 -27t-52 -34l-18 -15q-39 -33 -66.5 -75
t-40 -78t-18.5 -67.5t-7 -49.5t0 -18q-1 -5 0.5 -10t7.5 -11t17 -6q10 0 16.5 5.5t7.5 10.5l2 6q0 19 2 37.5t4 26.5l2 9q8 43 32.5 86t36.5 57t19 22v0q33 32 71 54t59 29l22 6q34 9 67 12t49 1l17 -2q51 -8 93.5 -25.5t59.5 -31.5l17 -13q26 -20 47.5 -45t34 -47t21 -41
t11.5 -30l3 -11q5 -12 8.5 -37.5t4 -40t0.5 -18.5q4 -22 28 -20q10 1 16 6.5t6 10.5l1 6q1 68 -17 117zM308 484q0 85 60 145t145 60t145 -60t60 -145t-60 -145t-145 -60t-145 60t-60 145z" />
    <glyph glyph-name="ruiyanshicai07" unicode="&#xe61c;" 
d="M512 112q-78 0 -133.5 55t-55.5 133.5t55.5 133.5t133.5 55t133.5 -55t55.5 -133.5t-55.5 -133.5t-133.5 -55zM512 438q-57 0 -97.5 -40.5t-40.5 -97t40.5 -97t97.5 -40.5t97 40.5t40 97t-40 97t-97 40.5zM610 731zM590 -157h-156q-10 0 -17.5 7.5t-8.5 18.5v49
q0 6 -2 13t-13.5 20t-31.5 18v0q-3 0 -7 0.5t-15 -2t-20 -8.5l-36 -36q-8 -7 -18.5 -7t-17.5 8l-111 110q-7 7 -7 17.5t7 18.5l37 40q17 29 3 56v0q-16 27 -43 30h-52q-10 0 -17.5 7.5t-7.5 18.5v156q0 10 7.5 17.5t18.5 7.5l48 1q6 0 13 1.5t20 13.5t19 32q5 22 -13 46
l-33 32q-7 8 -7 18.5t8 17.5l110 111q7 7 17.5 7t18.5 -7l35 -35v0h0.5t1.5 -1t2.5 -1.5t3.5 -1.5l4 -2t4.5 -2t5 -1.5t6 -1t6.5 -0.5v0q9 0 19 3q3 1 7.5 3.5t12 8.5t12.5 17.5t6 25.5l-1 44q0 11 8 18.5t18 7.5h156q12 0 19.5 -9t5.5 -21q0 -4 -0.5 -10.5t0.5 -21.5t5 -27
t15.5 -23.5t28.5 -14.5q2 -1 3 -1h5q20 0 41 18l28 28q8 7 18 7v0q11 0 18 -7l111 -111q7 -7 7 -17.5t-7 -17.5l-35 -36q-4 -6 -8 -15t-2.5 -26.5t15.5 -31.5v0v0q20 -18 40 -18h44q11 0 18.5 -7.5t7.5 -17.5v-156q0 -11 -7.5 -18.5t-18.5 -7.5h-50q-4 0 -10 -1.5t-17.5 -10
t-18.5 -23.5q-13 -28 9 -57l33 -34q7 -7 7 -17.5t-7 -18.5l-111 -110q-7 -8 -17.5 -8t-17.5 7l-41 39v0l-1.5 0.5t-4 2t-6 2.5t-8 2t-9.5 1q-15 0 -31 -10v0q-3 0 -14 -14t-11 -29v-48q-1 -11 -8.5 -18.5t-17.5 -7.5zM460 -106h104v23q1 24 14 46t21 29t14 11q29 18 59 18
q36 0 63 -21l24 -22l74 74l-16 17l-2 2q-12 16 -18 33.5t-6.5 30t2 24.5t4 16.5t3.5 7.5q15 34 42 49t50 15h25v105h-19q-44 0 -77 33q-23 25 -28 55t2 50.5t18 35.5q1 2 2 3l18 18l-74 74l-11 -11q-48 -42 -95 -29q-48 10 -69 46t-21 80h-103v-20q-1 -23 -9 -41.5
t-17.5 -29t-21 -18.5t-17 -10t-8.5 -3q-17 -6 -35 -6v0q-41 0 -69 25l-18 18l-74 -75l15 -15l2 -2q19 -24 24 -53t-1 -39q-12 -45 -42.5 -65.5t-58.5 -20.5h-23v-105h29q25 -3 47 -18t28 -24l10 -15q8 -16 10.5 -33t0.5 -29.5t-6 -24.5t-6.5 -16.5t-4.5 -6.5q-1 -2 -3 -4
l-22 -23l75 -75l19 19q2 1 3 2q43 31 87 19q44 -11 64.5 -41.5t20.5 -58.5z" />
    <glyph glyph-name="yanjing" unicode="&#xe620;" horiz-adv-x="1195" 
d="M597 87q55 0 123.5 25.5t122.5 60t93 68t45 50.5q-2 19 -38 55t-88.5 74t-123.5 65.5t-134 27.5q-81 0 -172.5 -38t-151.5 -91t-60 -94q2 -17 38.5 -50t89.5 -67.5t124 -60t132 -25.5zM597 44q-63 0 -141 27.5t-139.5 66t-103.5 81t-42 70.5q0 60 69.5 123t170 103.5
t186.5 40.5q69 0 148 -30.5t139 -73t100 -88t40 -75.5q0 -24 -43 -65.5t-105.5 -81.5t-140 -69t-138.5 -29v0v0zM597 193q44 0 75.5 31.5t31.5 75.5t-31.5 75.5t-75.5 31.5t-75 -31.5t-31 -75.5t31 -75.5t75 -31.5zM597 151q-62 0 -105.5 43.5t-43.5 105.5t43.5 105.5
t105.5 43.5t106 -43.5t44 -105.5t-44 -105.5t-106 -43.5v0v0z" />
    <glyph glyph-name="wifi" unicode="&#xe76d;" 
d="M468 83.5q0 -18.5 12.5 -31.5t31 -13t30.5 13t12 31.5t-12 30.5t-30.5 12t-31 -12t-12.5 -30.5zM511 25q-19 0 -33.5 11t-20.5 29q-5 -12 -5 -26q0 -25 17.5 -43t42.5 -18t42.5 18t17.5 43q0 15 -7 28q-5 -19 -19.5 -30.5t-34.5 -11.5zM475 161h-14v14q3 56 11 80v0l1 1
q4 11 9 19q-101 -11 -173 -83l81 -81q44 44 107 50h-22zM599 259q-19 -15 -25 -23t-10 -21q-2 -11 -4 -36v-5l-1 -13h-13h-19q63 -6 107 -50l81 81q-48 49 -113 70zM537 333v0q33 29 33 61q0 15 -12 25q-15 11 -42 11q-32 0 -47.5 -15t-17.5 -47l-1 -13h-13h-81h-14l1 15
q1 28 6 49q-92 -35 -163 -105l82 -81q54 54 124.5 79.5t144.5 20.5zM682 397q0 -42 -18 -71q-6 -10 -15 -20q60 -26 107 -73l82 81q-69 68 -157 103q1 -10 1 -20zM520 527v0h-1v0h-4h-2h-2q-81 -3 -125 -59q-28 -36 -30 -99v0h81v0q5 74 79 74q31 0 49.5 -13.5t18.5 -35.5
q0 -38 -38 -71l-17 -17q-13 -11 -18 -16q-16 -16 -26 -40q-8 -21 -10 -76v0h71v0q2 33 5 45q5 15 11.5 24t24.5 24h-1q2 1 4 3q30 24 45 41h1q32 36 32 86q0 13 -2 26v0q-9 44 -44 72h1q-41 32 -103 32zM64 436l82 -81q102 103 243 137q21 20 47 32q37 17 84 17q35 0 65 -10
q30 -11 51 -30q7 -6 13 -13q132 -36 229 -133l82 81q-91 91 -209.5 138.5t-238.5 47.5t-238.5 -47.5t-209.5 -138.5z" />
    <glyph glyph-name="jinzhiyanjing" unicode="&#xe608;" 
d="M509 120q-64 0 -123.5 14t-102.5 34.5t-81.5 48.5t-62.5 52t-44 50t-26.5 36.5t-10.5 17.5l-6 12l7 12q4 7 11.5 17.5t29 36.5t46 49.5t63.5 51.5t80.5 48.5t97.5 34t115 13.5q78 0 155 -25.5t127 -58t96 -74.5t61.5 -60.5t23.5 -31.5l9 -11l-7 -13q-3 -7 -9.5 -18
t-26.5 -37t-43.5 -50t-62.5 -52t-83 -48.5t-105 -34.5t-128 -14v0zM108 384q12 -20 28.5 -41.5t53 -54.5t78.5 -58t106.5 -43.5t134.5 -18.5q73 0 139 18.5t108.5 43t79 57.5t53 54t28.5 41q-16 20 -36.5 41.5t-62 55.5t-85.5 59t-106.5 44t-124.5 19q-64 0 -125 -19
t-102.5 -44t-79.5 -58.5t-55.5 -55t-31.5 -40.5v0zM503 219q-75 0 -128.5 48.5t-53.5 117t53.5 117t128.5 48.5t128.5 -48.5t53.5 -117t-53.5 -117t-128.5 -48.5v0zM503 502q-55 0 -94.5 -34.5t-39.5 -83t39.5 -83t94.5 -34.5t94.5 34.5t39.5 83t-39.5 83t-94.5 34.5v0z
M206 778zM277 845l517 -895l-45 -26l-517 895zM277 845z" />
    <glyph glyph-name="cha" unicode="&#xe6b4;" 
d="M512 845q-94 0 -179 -36.5t-147 -98.5t-98 -147t-36 -179t36 -179t98 -146.5t147 -98t179 -36.5t179 36.5t147 98t98 146.5t36 179t-36 179t-98 147t-147 98.5t-179 36.5zM704 265q16 -16 16 -37.5t-15.5 -36.5t-37 -15t-36.5 15l-119 120l-119 -120q-16 -15 -37 -15
t-36.5 15.5t-15.5 37t15 36.5l120 119l-120 119q-15 15 -15 36.5t15.5 37t37 15.5t36.5 -15l119 -120l119 120q16 15 37 15t36.5 -15.5t15.5 -37t-15 -36.5l-120 -119z" />
    <glyph glyph-name="shezhizhongxinjishuzhichi" unicode="&#xe7ce;" 
d="M852 490q3 -2 8 -5t17.5 -18t22 -35.5t16.5 -59t6 -86.5l54 -54q1 2 3 7t7.5 21t10.5 32.5t10 40.5t7.5 46.5t2.5 49t-5 49.5q0 4 -1 12t-11.5 34t-29 53.5t-57.5 68t-93 79.5q0 2 -9 0t-23 3t-27 12t-21.5 26t-6.5 47l-75 75l-136 -136l66 -67q4 0 9.5 -0.5t21.5 -4
t29.5 -8.5t28 -16t22.5 -25t8 -37t-12 -50l-246 -248l-47 7l-281 -281q-1 -3 -2 -7.5t-2 -18.5t1.5 -27t10.5 -29t21 -28q4 -4 11 -10.5t32 -16.5t55 -9l276 286l5 47l281 279v0q13 20 35 7q3 -2 7 -5zM320 458l89 -89l120 121l-93 92q30 67 19 118.5t-40.5 88t-68.5 59.5
t-64.5 34t-28.5 11q-23 6 -33.5 -0.5t-9.5 -15.5l1 -10q31 -26 52 -47.5t28.5 -34.5t11 -22t2.5 -13l-1 -4q-4 -29 -16.5 -54.5t-26.5 -41.5t-29 -27.5t-23.5 -16t-9.5 -4.5q-20 -8 -38 -7.5t-34.5 8t-30.5 18t-26 23t-20 23t-12.5 17.5l-4.5 7q-13 2 -19.5 -5t-6.5 -15v-8
q15 -66 40.5 -113t54 -69.5t59.5 -33.5t59 -10t50.5 5.5t36 10zM601 167l277 -295l136 136l-291 281zM878 73l56 -41l-21 -67h-70l-21 67z" />
    <glyph glyph-name="xinhao" unicode="&#xe615;" 
d="M697 -65q0 -16 -11 -27.5t-28 -11.5h-292q-17 0 -28 11.5t-11 27.5t11 27.5t28 11.5h107v359q-25 11 -40 34t-15 51q0 39 27.5 66t66.5 27t66.5 -27t27.5 -66q0 -28 -15 -51t-40 -34v-359h107q17 0 28 -11.5t11 -27.5zM512 872q-92 0 -176 -36t-145 -97t-97 -145
t-36 -176q0 -91 34 -174t99 -148q11 -11 27.5 -11t27.5 11.5t11 27.5t-11 28q-53 53 -81.5 121.5t-28.5 144.5q0 102 50.5 188.5t137 137t188.5 50.5t188.5 -50.5t137 -137t50.5 -188.5q0 -76 -28.5 -144.5t-81.5 -121.5q-11 -12 -11 -28t11 -27.5t27.5 -11.5t27.5 11
q65 65 99 148t34 174q0 92 -36 176t-97 145t-145 97t-176 36zM512 684q-110 0 -188.5 -78t-78.5 -188.5t78 -188.5q12 -11 28 -11t27.5 11t11.5 27.5t-11 27.5q-56 55 -56 133.5t55.5 133.5t133.5 55t133.5 -55t55.5 -133t-56 -134q-11 -11 -11 -27.5t11.5 -27.5t27.5 -11
t28 11q78 78 78 188.5t-78.5 188.5t-188.5 78z" />
    <glyph glyph-name="jiantouzuo" unicode="&#xe6a0;" 
d="M363 332zM266 384q-1 -21 13 -36l396 -396q14 -14 33.5 -14t33.5 14t14 34t-13 34l-365 365l365 364q14 14 14 34t-14 34t-34 14t-34 -14l-396 -395q-14 -16 -13 -38v0v0zM266 384z" />
    <glyph glyph-name="gouwu" unicode="&#xe602;" 
d="M297 534q-18 0 -30.5 13t-12.5 30.5t12.5 30t30.5 12.5t30.5 -12.5t12.5 -30t-12.5 -30.5t-30.5 -13v0zM727 534q-18 0 -30.5 13t-12.5 30.5t12.5 30t30.5 12.5t30.5 -12.5t12.5 -30t-12.5 -30.5t-30.5 -13v0zM813 -3h-602q-35 0 -60.5 25.5t-25.5 60.5v602
q0 35 25.5 60.5t60.5 25.5h602q35 0 60.5 -25.5t25.5 -60.5v-602q0 -35 -25.5 -60.5t-60.5 -25.5v0zM856 685q0 18 -12.5 30.5t-30.5 12.5h-602q-18 0 -30.5 -12.5t-12.5 -30.5v-602q0 -18 12.5 -30.5t30.5 -12.5h602q18 0 30.5 12.5t12.5 30.5v602v0zM512 341
q-98 0 -167 69.5t-69 166.5q0 9 6 15.5t15 6.5t15.5 -6.5t6.5 -15.5q0 -80 56.5 -136.5t136.5 -56.5t136.5 56.5t56.5 136.5q0 9 6.5 15.5t15.5 6.5t15 -6.5t6 -15.5q0 -97 -69 -166.5t-167 -69.5v0z" />
    <glyph glyph-name="meiwifi-copy" unicode="&#xe61e;" 
d="M836 532q40 -8 75 -27q8 16 -4 29q-78 91 -188.5 141t-232.5 50t-232.5 -50t-189.5 -141q-7 -8 -6 -19t9 -18.5t19 -6.5t19 9q71 82 171 127t210 45q99 0 189.5 -36t160.5 -103zM486 239q-22 0 -38 -15.5t-16 -37.5t16 -37.5t38 -15.5q34 0 49 31q-14 31 -18 65
q-14 10 -31 10zM631 489q27 19 58 31q-93 54 -203 54q-92 0 -173.5 -38.5t-138.5 -109.5q-7 -8 -6 -19.5t10 -18.5t20 -5.5t18 9.5q49 61 119.5 94.5t150.5 33.5q76 0 145 -31zM783.5 483q-89.5 0 -152.5 -63t-63 -152.5t63 -152.5t152.5 -63t152.5 63t63 152.5t-63 152.5
t-152.5 63zM914 157q10 -10 0 -20q-4 -4 -10 -4t-10 4l-111 111l-111 -111q-5 -4 -10.5 -4t-9.5 4q-10 10 0 20l111 111l-111 111q-10 10 0 20t20 0l111 -111l111 111q10 10 20 0t0 -20l-111 -111zM284 316q-7 -9 -5 -20t12 -17q6 -5 15 -5q14 0 22 12q26 39 68 61t90 22
q23 0 46 -5q10 26 24 49q-34 10 -70 10q-61 0 -115 -28.5t-87 -78.5z" />
    <glyph glyph-name="xiangji" unicode="&#xe603;" 
d="M1004 573q-3 48 -37 81.5t-81 34.5q-13 1 -27.5 1t-32 -0.5t-26.5 -0.5t-14 8q-28 58 -43 85q-15 29 -49 29h-356q-10 0 -20 -3q-17 -5 -30 -28q-7 -13 -41 -81q-6 -11 -18 -11q-40 2 -81 0q-51 -1 -86 -35.5t-35 -85.5v-488q0 -33 16 -62q38 -61 111 -61h361h361
q25 0 45 7q38 13 60.5 45t22.5 74v481q1 5 0 10zM943 84q0 -54 -47 -65q-7 -2 -22 -2h-360h-360q-35 0 -55 24q-12 16 -12 41v481q0 29 18 47t48 18h110q7 0 10 6q8 14 22.5 42.5t21.5 42.5l4 6t4.5 6.5t4.5 5.5q10 13 25 13h17h285q36 0 51 -30q30 -57 45 -86q4 -7 11 -7
h112q23 0 39.5 -12.5t21.5 -33.5q2 -7 2 -21q4 -158 4 -476zM515 583q-100 0 -172 -71.5t-72.5 -172.5t71 -173t172.5 -72t173 72t72 173q1 100 -71 172t-173 72zM515 155q-76 0 -129 53.5t-53 128.5t54 129t129 54t129 -54t54 -129q0 -76 -54.5 -129.5t-129.5 -52.5z" />
    <glyph glyph-name="iconfontjiantou5" unicode="&#xe636;" 
d="M724 363l0.5 1t0.5 2q7 13 4.5 28t-13.5 26l-344 325q-14 13 -33 12.5t-32.5 -14.5t-13 -33.5t14.5 -32.5l309 -292l-308 -296q-14 -13 -14 -32.5t13 -33.5q14 -14 34 -14q19 0 32 13l341 328l0.5 1t1 1.5l1.5 1.5t6 9v0zM724 363z" />
    <glyph glyph-name="iconfontwifi" unicode="&#xe64a;" horiz-adv-x="1025" 
d="M12 532q-12 -12 -12 -29t12 -29.5t29.5 -12.5t29.5 12q90 90 206.5 136.5t234.5 46.5t234.5 -46.5t206.5 -136.5q12 -12 29.5 -12t29.5 12.5t12 29.5t-12 29q-102 102 -234 155t-266 53t-266 -53t-234 -155zM403 134.5q0 -43.5 30.5 -74.5t74.5 -31t74.5 31t30.5 74.5
t-30.5 74.5t-74.5 31t-74.5 -31t-30.5 -74.5zM813 207h-35v41q0 13 5 25t14.5 20.5t22.5 13.5t28 5q13 0 25.5 -5t22 -13.5t15.5 -20.5t6 -25v-41h-34v33q0 18 -10 27q-5 5 -25.5 5t-25.5 -5q-9 -9 -9 -27v-33v0zM934 190q7 0 12.5 -5.5t5.5 -12.5v-87q0 -8 -2.5 -14.5
t-7.5 -11.5t-11 -7.5t-14 -2.5h-141q-8 0 -14 2.5t-10.5 7t-6.5 11t-2 13.5v89q0 7 5 12.5t13 5.5h173v0v0zM740 252q0 34 20 60q-72 65 -165.5 86t-185.5 -5.5t-162 -95.5q-12 -12 -12 -29.5t12.5 -29.5t29.5 -12t29 12q85 85 206 85t206 -85q10 -10 25 -12q-3 13 -3 26z
M840 352q19 0 36 -7q10 3 18 11q12 12 12 29t-12 30q-103 103 -242.5 140t-279 0t-242.5 -140q-12 -13 -12 -30t12 -29t29 -12t30 12q87 88 205 119t236 0t205 -119q3 -2 5 -4z" />
    <glyph glyph-name="jiantouxia-copy" unicode="&#xe66e;" 
d="M512 224v0l-392 391l-60 -60l452 -452l30 30l422 422l-60 60z" />
    <glyph glyph-name="wifi2ge" unicode="&#xe67a;" horiz-adv-x="1025" 
d="M130 415q-12 -13 -12 -30t12 -29t29 -12t30 12q65 66 150.5 100t172.5 34t172.5 -34t150.5 -100q13 -12 30 -12t29 12t12 29t-12 30q-103 103 -242.5 140t-279 0t-242.5 -140zM247 297q-12 -12 -12 -29.5t12.5 -29.5t29.5 -12t29 12q85 85 206 85t206 -85q12 -12 29 -12
t29.5 12t12.5 29.5t-12 29.5q-72 72 -168.5 97.5t-193 0t-168.5 -97.5zM403 134.5q0 -43.5 30.5 -74.5t74.5 -31t74.5 31t30.5 74.5t-30.5 74.5t-74.5 31t-74.5 -31t-30.5 -74.5z" />
    <glyph glyph-name="wifi1ge" unicode="&#xe67b;" horiz-adv-x="1025" 
d="M247 297q-12 -12 -12 -29.5t12.5 -29.5t29.5 -12t29 12q85 85 206 85t206 -85q12 -12 29 -12t29.5 12t12.5 29.5t-12 29.5q-72 72 -168.5 97.5t-193 0t-168.5 -97.5zM403 134.5q0 -43.5 30.5 -74.5t74.5 -31t74.5 31t30.5 74.5t-30.5 74.5t-74.5 31t-74.5 -31
t-30.5 -74.5z" />
    <glyph glyph-name="wifi0ge" unicode="&#xe67c;" horiz-adv-x="1025" 
d="M403 134.5q0 -43.5 30.5 -74.5t74.5 -31t74.5 31t30.5 74.5t-30.5 74.5t-74.5 31t-74.5 -31t-30.5 -74.5z" />
    <glyph glyph-name="my" unicode="&#xe604;" 
d="M648 344q63 38 100.5 101.5t37.5 138.5q0 116 -81 197t-196.5 81t-196 -81t-80.5 -197q0 -75 37.5 -138.5t100.5 -101.5q-128 -44 -209 -155.5t-81 -251.5q0 -14 8.5 -22.5t22.5 -8.5h802q14 0 22.5 8.5t8.5 22.5q-3 140 -85.5 252.5t-210.5 154.5v0zM293 584
q0 91 63 153.5t153 62.5t153 -62.5t63 -153t-63 -153t-153 -62.5t-153 62.5t-63 152.5v0zM139 -32q12 143 118 241t252 98q145 0 250.5 -97.5t119.5 -241.5h-740z" />
    <glyph glyph-name="suo" unicode="&#xe618;" 
d="M782 491h-5q-8 0 -9.5 1.5t-1.5 10.5v4v64q-2 104 -75 175q-61 59 -141.5 70.5t-153.5 -29.5q-127 -70 -132 -219q-1 -10 -1 -28.5v-28.5q0 -18 -1 -19t-18 -1q-26 -1 -42.5 -17.5t-16.5 -43.5q-1 -386 -1 -419q0 -27 18.5 -44.5t42.5 -17.5h266h268t44.5 17t16.5 45v415
q0 12 -1 17q-4 21 -20 34t-37 14zM313 562q0 65 35.5 117.5t93.5 75.5q46 19 92.5 13t85 -28.5t65 -62.5t32.5 -89q3 -4 2.5 -45t-0.5 -46q0 -6 -10 -6h-122h-71h-190q-10 0 -11.5 1.5t-1.5 10.5v59zM787 23q0 -8 -5.5 -13.5t-12.5 -5.5h-514q-7 0 -12.5 5.5t-5.5 13.5v391
q0 8 5.5 13.5t12.5 5.5h514q7 0 12.5 -5.5t5.5 -13.5v-391zM524 371q-26 2 -47 -11t-30 -36t-2.5 -48t25.5 -39q13 -9 13 -25v-56v-29.5t2 -30.5q1 -11 9.5 -18t19.5 -7q23 -1 30 24q1 5 1 13v99t14 29q37 27 29 75q-5 24 -23 41t-41 19z" />
    <glyph glyph-name="yuanquangou" unicode="&#xe610;" 
d="M513 819q-118 0 -218 -58t-158.5 -158t-58.5 -218t58.5 -218t158.5 -158t218 -58t218 58t158 158t58 218t-58 218t-158 158t-218 58zM513 -8q-107 0 -197.5 52.5t-143 143t-52.5 197.5t52.5 197.5t143 143t197.5 52.5t197.5 -52.5t143 -143t52.5 -197.5t-52.5 -197.5
t-143 -143t-197.5 -52.5zM434 140l-209 209l47 46l162 -162l364 364l46 -47z" />
    <glyph glyph-name="jifen" unicode="&#xe605;" 
d="M483 4h-0.5h-0.5q-19 0 -31 15l-336 429q-17 22 -2 46l124 196q11 19 33 19h426q20 0 32 -17l141 -197q8 -11 7.5 -24.5t-9.5 -24.5l-353 -428q-12 -14 -31 -14zM159 473l324 -413l341 412l-133 187h-415zM492 300q-53 0 -90.5 37.5t-37.5 90.5t37.5 90.5t90.5 37.5
t90.5 -37.5t37.5 -90.5t-37.5 -90.5t-90.5 -37.5zM492 506q-32 0 -55 -23t-23 -55t23 -55t55 -23t55 23t23 55t-23 55t-55 23z" />
    <glyph glyph-name="liaotian" unicode="&#xe606;" 
d="M959 387.5q0 -102.5 -60 -190t-163 -138t-225 -50.5q-100 0 -191 36l-170 -108l27 198q-54 51 -84 116t-30 136q0 103 60 190t163.5 138t225.5 51q121 0 224.5 -51t163 -138t59.5 -189.5zM213 33l108 71l17 2q37 -14 56.5 -21t52.5 -14t61 -7q105 0 196 44.5t143.5 119
t52.5 159t-52.5 158t-143.5 118t-196.5 44.5t-194.5 -44t-139.5 -118t-50.5 -159q0 -123 90 -205l18 -31zM263 405q0 -22 15.5 -37.5t37 -15.5t37 15.5t15.5 37.5t-15.5 37t-37 15t-37 -15t-15.5 -37v0zM471 405q0 -22 15.5 -37.5t37.5 -15.5t37.5 15.5t15.5 37.5t-15.5 37
t-37.5 15t-37.5 -15t-15.5 -37v0zM680 405q0 -22 15.5 -37.5t37.5 -15.5t37 15.5t15 37.5t-15 37t-37 15t-37.5 -15t-15.5 -37v0z" />
    <glyph glyph-name="zhuangtaigougou" unicode="&#xe60f;" 
d="M512 896q-104 0 -199 -40.5t-163.5 -109t-109 -163.5t-40.5 -199t40.5 -198.5t109 -163.5t163.5 -109.5t199 -40.5t199 40.5t163.5 109.5t109 163.5t40.5 198.5t-40.5 199t-109 163.5t-163.5 109t-199 40.5zM512 -64q-91 0 -174 35.5t-143 95.5t-95.5 143t-35.5 174
t35.5 174t95.5 143t143 95.5t174 35.5t174 -35.5t143 -95.5t95.5 -143t35.5 -174t-35.5 -174t-95.5 -143t-143 -95.5t-174 -35.5zM680 494l-225 -225l-109 109q-11 11 -27.5 11t-28 -11.5t-11.5 -27.5t12 -27l109 -109v0h-1h1v-1l1 -1v0l1 -1h1v-1l1 -1h1l1 -1v-1l1 -1h1
l1 -1v-1l1 -1l1 -1l1 -1l1 -1l1 -1h1l1 -1l1 -1l1 -1l1 -2q19 -17 35 -15.5t27 8t11 7.5l19 19l225 225q11 12 11 28t-11.5 28t-28 12t-27.5 -12z" />
    <glyph glyph-name="chenggongyemiandegougou" unicode="&#xe61f;" 
d="M504.5 880q-102.5 0 -196 -40t-161 -107.5t-107 -161t-39.5 -196t39.5 -195.5t107 -160.5t161 -107.5t196 -40t195.5 40t160.5 107.5t107.5 160.5t40 195.5t-40 196t-107.5 161t-160.5 107.5t-195.5 40zM779 476l-307 -306q-6 -6 -14.5 -6t-14.5 6l-172 172q-6 6 -6 14.5
t6 14t14.5 5.5t14.5 -6l157 -157l293 292q6 6 14.5 6t14.5 -6t6 -14.5t-6 -14.5z" />
    <glyph glyph-name="yanjing2" unicode="&#xe6e3;" 
d="M960 381.5v-1.5v0q0 -1 -0.5 -1.5l-0.5 -0.5v0q-1 -12 -9 -20q-10 -12 -30 -33q-90 -93 -190 -146q-75 -40 -142 -53q-83 -15 -164 3q-60 13 -123 46l1 1l112 75q44 -32 98 -32q70 0 119 50t49 121q0 19 -4 37l148 99q15 -11 29 -23q61 -50 97 -95q8 -8 9 -20v0l1 -1v0
v-0.5v-0.5v-1v-2v-1.5zM512 305q-8 0 -16 1l98 66q-6 -29 -29 -48t-53 -19zM880 608l-727 -485v0v0q-6 -4 -12 -4q-9 0 -15 6.5t-6 15.5q0 11 10 17v0l727 485v1v0q6 3 12 3q9 0 15 -6t6 -15q0 -12 -10 -18v0zM512 476q11 0 23 -4l-106 -72q3 32 27 54t56 22zM614 526
q-45 35 -102 35q-70 0 -119 -50t-49 -121q0 -21 6 -43l-146 -99l-8 -6q-13 11 -25 21q-61 50 -98 95q-19 25 0 50q11 13 30 33q91 94 190 147q75 39 143 52q83 15 163 -2q57 -13 117 -43l-8 -5z" />
    <glyph glyph-name="yanjing1" unicode="&#xe6e4;" 
d="M942 400q-11 13 -28 32t-65 63t-96 77.5t-114.5 60.5t-126.5 28q-60 0 -126 -27t-114 -60.5t-96 -77t-65.5 -62.5t-27.5 -32l-15 -17l15 -17q10 -14 27 -32.5t65 -63t95.5 -77.5t114 -60.5t126.5 -27.5q46 0 95 15t87 34t80 50.5t65.5 52t53 52t34 36.5t15.5 19l15 17z
M525 219q-64 0 -112 49q-47 47 -47 115q0 66 47 113t113 47t112.5 -47.5t46.5 -113.5t-48.5 -114.5t-111.5 -48.5zM526.5 489q-43.5 0 -74.5 -31t-31 -74.5t30.5 -74t73.5 -30.5q42 0 73.5 31t31.5 73q0 44 -30 75t-73.5 31z" />
    <glyph glyph-name="iconfontzhuangtai2" unicode="&#xe60d;" 
d="M146 -127q-60 0 -102.5 42.5t-42.5 102.5v659q0 60 42.5 102.5t102.5 42.5h73v-72h-73q-30 0 -51.5 -21.5t-21.5 -51.5v-659q0 -30 21.5 -51.5t51.5 -21.5h732q30 0 51.5 21.5t21.5 51.5v659q0 30 -21.5 51.5t-51.5 21.5h-73v72h73q60 0 102.5 -42.5t42.5 -102.5v-659
q0 -60 -42.5 -102.5t-102.5 -42.5h-732v0zM329 92q-15 0 -25.5 10.5t-10.5 25.5t10.5 25.5t25.5 10.5h366q15 0 25.5 -10.5t10.5 -25.5t-10.5 -25.5t-25.5 -10.5h-366v0zM329 311q-15 0 -25.5 11t-10.5 25.5t10.5 25.5t25.5 11h366q15 0 25.5 -11t10.5 -25.5t-10.5 -25.5
t-25.5 -11h-366v0zM183 531q-15 0 -25.5 10.5t-10.5 25.5t10.5 25.5t25.5 10.5h658q15 0 25.5 -10.5t10.5 -25.5t-10.5 -25.5t-25.5 -10.5h-658v0zM695 677q-15 0 -25.5 10.5t-10.5 25.5v146q0 15 10.5 25.5t25.5 10.5t25.5 -10.5t10.5 -25.5v-146q0 -15 -10.5 -25.5
t-25.5 -10.5v0zM329 677q-15 0 -25.5 10.5t-10.5 25.5v146q0 15 10.5 25.5t25.5 10.5t25.5 -10.5t10.5 -25.5v-146q0 -15 -10.5 -25.5t-25.5 -10.5v0zM439 750v72h146v-72h-146v0z" />
    <glyph glyph-name="z-eyeCloses" unicode="&#xe656;" 
d="M919 400v0v0q0 6 -5.5 11t-12.5 5q-11 2 -20 -12l-3 -6q0 -1 -1 -1v0q-47 -87 -143.5 -151.5t-203.5 -64.5q-106 0 -202.5 64t-143.5 151l-2 2l-1 2v0l-2 4q-4 6 -8.5 9t-7.5 3h-3q-8 0 -13 -5t-6 -11v0v0v-1q0 -4 3 -7v0l7 -13q39 -71 109 -129l-83 -52q-7 -4 -8.5 -11
t2.5 -13t11 -8t13 2l94 59q7 -5 13 -9q58 -38 119 -57l-40 -126q-3 -7 0.5 -13.5t10.5 -8.5t13 1.5t9 9.5l41 128q38 -8 75 -8t75 8l42 -128q2 -6 8.5 -9.5t13.5 -1.5t10 8.5t1 13.5l-41 126q62 19 120 57q6 4 12 9l94 -59q7 -4 14 -2t10.5 8t2 13t-7.5 11l-83 52
q70 57 108 129l8 12v2q2 3 2 6v1z" />
    <glyph glyph-name="cha1" unicode="&#xe64c;" 
d="M512 848q-94 0 -180 -36.5t-148.5 -99t-99 -148.5t-36.5 -180t36.5 -180t99 -148.5t148.5 -99t180 -36.5t180 36.5t148.5 99t99 148.5t36.5 180t-36.5 180t-99 148.5t-148.5 99t-180 36.5zM751 159q8 -7 0 -14q-3 -3 -7 -3t-7 3l-225 225l-225 -225q-3 -3 -7 -3t-7 3
q-8 7 0 14l225 225l-225 225q-8 7 -0.5 14.5t14.5 -0.5l225 -225l225 225q7 8 14.5 0.5t-0.5 -14.5l-225 -225z" />
    <glyph glyph-name="gaojishezhi01" unicode="&#xe635;" 
d="M842 503q-12 49 -38 91q23 33 22 51t-28 44l-16 17q-28 28 -49 28q-18 0 -46 -22q-43 25 -92 37q-6 39 -19.5 51t-51.5 12h-23q-40 0 -53 -13t-18 -50q-49 -12 -92 -38q-30 23 -47 23q-13 0 -23 -6.5t-24 -21.5l-17 -17q-20 -19 -25 -34t-0.5 -28t19.5 -33
q-25 -42 -38 -91q-39 -6 -51 -19.5t-12 -51.5v-24q0 -39 13.5 -52.5t49.5 -18.5q13 -48 38 -91q-23 -32 -22 -50t28 -45l17 -17q28 -28 48 -28q18 0 46 23q43 -26 92 -38q6 -39 19.5 -51t51.5 -12h23q40 0 53.5 13t18.5 50q48 12 91 38q30 -22 48 -22q13 0 22.5 6.5
t24.5 20.5l16 17q20 20 25.5 35t0.5 27.5t-20 32.5q26 43 38 91q39 6 51 20t12 51v24q0 40 -13.5 53t-49.5 18zM830 386l-30 -4l-3 -18q-11 -57 -44 -105l-10 -15l18 -24q15 -18 16 -18q-1 -4 -14 -16l-16 -16q-3 -4 -4.5 -5t-4 -4t-2.5 -3.5v-1.5q-5 1 -23 16l-24 18
l-15 -10q-48 -33 -106 -44l-17 -4l-4 -29q-3 -23 -2 -24q-3 -1 -21 -1h-23q-4 0 -6.5 -0.5t-5.5 -0.5t-4 -0.5l-1 -0.5q-2 3 -6 27l-3 29l-18 4q-58 11 -106 44l-15 9l-23 -18q-19 -14 -19 -15q-3 1 -15 14l-17 16q-6 6 -9.5 9t-3.5 2q1 4 15 23l18 23l-10 15
q-33 49 -44 106l-3 18l-30 4q-23 3 -24 1q-1 4 -1 21v24v5v5v4t-0.5 2.5t-1.5 0.5q4 2 28 6l29 3l3 18q12 58 44 106l10 14l-18 24q-1 1 -2 3l-4.5 6t-4 4.5l-4 4t-1.5 0.5q2 4 14 16l17 17q3 3 4 4.5t3.5 4t2.5 3v1.5q5 -1 24 -15l23 -18l15 10q48 32 106 43l17 4l4 29
q3 24 2 24q3 2 21 2h23h7h5t4.5 0.5t0.5 1.5q3 -4 6 -28l4 -29l17 -3q58 -12 106 -44l15 -10l24 18q18 14 18 16q3 -2 16 -14l16 -17q6 -6 9.5 -9t4.5 -2q-1 -4 -16 -23l-18 -23l10 -15q33 -49 44 -106l3 -17l30 -4q23 -3 24 -2q1 -3 1 -21v-24v-5v-4.5v-3.5t0.5 -3t1.5 -1
q-4 -2 -27 -5zM512.5 595q-74.5 0 -127.5 -53t-53 -127.5t53 -127.5t127.5 -53t127.5 53t53 127.5t-53 127.5t-127.5 53zM513 558q36 0 66.5 -16.5t50.5 -45.5l-61 -52q-19 35 -56 35q-15 0 -30 -8l-82 33q44 54 112 54zM512.5 388q-11.5 0 -19 8t-7.5 19t7.5 19t19 8
t19.5 -8t8 -19t-8 -19t-19.5 -8zM369 415q0 29 12 57l74 -30q-7 -14 -7 -27q0 -21 13 -38t33 -23v-81q-53 7 -89 47.5t-36 94.5zM531 273v81q35 11 43 47h1l72 61q9 -25 9 -47q0 -54 -36 -94.5t-89 -47.5z" />
    <glyph glyph-name="yuanquan" unicode="&#xe611;" 
d="M512 832q91 0 174 -35.5t143 -95.5t95.5 -143t35.5 -174t-35.5 -174t-95.5 -143t-143 -95.5t-174 -35.5t-174 35.5t-143 95.5t-95.5 143t-35.5 174t35.5 174t95.5 143t143 95.5t174 35.5zM512 896q-139 0 -257 -68.5t-186.5 -186.5t-68.5 -257t68.5 -257t186.5 -186.5
t257 -68.5t257 68.5t186.5 186.5t68.5 257t-68.5 257t-186.5 186.5t-257 68.5v0v0zM512 896z" />
    <glyph glyph-name="jiantoushangxiaicon" unicode="&#xe619;" 
d="M422 51q-4 0 -7 3t-3 7v654q0 10 10 10t10 -10v-654q0 -10 -10 -10v0zM422 51q-6 0 -9 5l-121 219q-5 9 4 14t14 -4l121 -219q5 -9 -4 -14q-2 -1 -5 -1v0zM602 43q-4 0 -7 3t-3 7v654q0 4 3 7t7 3t7 -3t3 -7v-654q0 -4 -3 -7t-7 -3v0zM723 477q-6 0 -9 6l-121 219
q-5 9 4 14t14 -4l121 -219q5 -9 -4 -14q-2 -2 -5 -2v0z" />
    <glyph glyph-name="peizhi" unicode="&#xe63e;" 
d="M539 488v307q0 11 -8 19t-19 8t-19 -8t-8 -19v-307q-35 -9 -58.5 -38t-23.5 -67t23.5 -67t58.5 -38v-305q0 -11 8 -19t19 -8t19 8t8 19v305q35 9 58.5 38t23.5 67t-23.5 67t-58.5 38zM539 335q-14 -8 -27 -8t-27 8q-29 16 -29 48t29 48q14 8 27 8t27 -8q29 -16 29 -48
t-29 -48zM878 673v122q0 11 -8 19t-19 8t-19 -8t-8 -19v-122q-35 -9 -58.5 -38.5t-23.5 -67t23.5 -67t58.5 -38.5v-489q0 -11 8 -19t19 -8t19 8t8 19v489q35 9 58.5 38.5t23.5 67t-23.5 67t-58.5 38.5zM878 520q-14 -8 -27 -8t-27 8q-29 16 -29 47.5t29 48.5q14 7 27 7
t27 -7q29 -17 29 -48.5t-29 -47.5zM200 304v491q0 11 -8 19t-19 8t-19 -8t-8 -19v-491q-35 -9 -58.5 -38.5t-23.5 -67t23.5 -66.5t58.5 -39v-120q0 -11 8 -19t19 -8t19 8t8 19v120q35 10 58.5 39t23.5 66.5t-23.5 67t-58.5 38.5zM200 151q-14 -8 -27 -8t-27 8q-29 16 -29 48
t29 48q14 7 27 7t27 -7q29 -16 29 -48t-29 -48z" />
    <glyph glyph-name="wodexuanzhongzhuangtai" unicode="&#xe616;" 
d="M611 344q-45 -35 -99 -35t-99 35q-31 -7 -51 -29.5t-20 -52.5v-56q0 -35 27 -60t66 -25h154q39 0 66 25t27 60v56q0 30 -20 52.5t-51 29.5zM512 346q55 0 93.5 44t38.5 106.5t-38.5 106.5t-93.5 44t-93.5 -44t-38.5 -106.5t38.5 -106.5t93.5 -44zM512 823
q-89 0 -170.5 -35t-140 -93.5t-93 -140t-34.5 -170.5t34.5 -170.5t93 -140t140 -93.5t170.5 -35t170.5 35t140 93.5t93 140t34.5 170.5t-34.5 170.5t-93 140t-140 93.5t-170.5 35zM720 196q0 -46 -33.5 -79t-80.5 -33h-188q-47 0 -80.5 33t-33.5 79v75q0 37 21.5 66t55.5 40
q-39 52 -39 120q0 77 50 132t120 55t120 -55t50 -132q0 -68 -39 -120q34 -11 55.5 -40t21.5 -66v-75z" />
    <glyph glyph-name="jiantoushangxia50" unicode="&#xe679;" 
d="M573.5 -5q-8.5 0 -14.5 6t-6 14v665q0 13 12.5 18.5t22.5 -4.5l188 -187q6 -6 6 -14.5t-6 -14.5t-14.5 -6t-14.5 6l-153 152v-615q0 -8 -6 -14t-14.5 -6zM430 -5q-8 0 -14 6l-188 182q-6 6 -6.5 14.5t5.5 14.5t14.5 6t14.5 -6l154 -148v607q0 8 6 14t14.5 6t14.5 -6
t6 -14v-656q0 -13 -13 -19q-4 -1 -8 -1z" />
    <glyph glyph-name="shangwangshezhi" unicode="&#xe630;" 
d="M1007 384q0 101 -39 192.5t-105.5 158t-158 105.5t-192.5 39t-192.5 -39t-158 -105.5t-105.5 -158t-39 -192.5q0 -124 57 -231t156.5 -175.5t219.5 -83.5q23 -5 51 -5q8 0 16 1q100 1 190.5 40.5t156.5 105.5t104.5 157t38.5 191zM936 377q-2 37 -9 73v23q9 -43 9 -89
v-2.5v-4.5zM88 384q0 45 9 88q13 -16 38.5 -13.5t33.5 23.5q4 -3 18 -8.5t20 -11.5t6 -16q0 -22 0.5 -37t2.5 -35t6.5 -33t12 -25t20 -18t28.5 -6q2 0 11 -5t22.5 -19t20.5 -34q3 -7 10.5 -7t21.5 3.5t23 3.5q6 0 6 -6t-3 -25t-3 -37q0 -20 25 -49t49 -48l25 -19
q0 -45 4 -75q-32 0 -57 -8q-150 26 -250 144t-100 273zM616 -26q-3 18 -29 12q9 39 13 53.5t13.5 33.5t23.5 31q20 19 19 36t-15.5 28t-30.5 9q-9 -2 -13 3t-4.5 11.5t-4 12t-10.5 6.5q-12 1 -41 28t-44 35q-1 0 -23 15t-38 16q-6 0 -14.5 -2t-16 -4t-14 -3.5t-10 -0.5
t-3.5 6q0 23 -1 44.5t-3 39.5t-2 19q0 3 -1 6q-1 1 1 1q9 -3 24 -3q9 -1 13.5 17t12.5 19q7 0 34.5 -6.5t32.5 -2.5q2 1 8 -7q3 -5 12 -21q27 -50 38 -50q12 -1 12 51q0 4 -1.5 17t-1.5 23.5t3 16.5q8 15 18.5 33.5t17.5 30t13 23t8.5 18t2 8.5t-9.5 3.5t-22.5 0.5t-25.5 -5
q-4 -1 -3.5 -9.5t-5.5 -9.5q-24 -4 -42 -0.5t-27.5 13.5t-2.5 21q6 8 23.5 12.5t31.5 13t16 27.5q4 32 6 76q34 -5 39 20q7 28 -24 50q-20 15 -51 18q136 -1 244.5 -80.5t151.5 -204.5q-5 4 -10 5q-16 40 -45 32q-25 -7 -30 -38q-3 -17 3 -35q-142 -110 -50 -195
q25 -23 54 -70q-8 -23 12 -23q27 2 55 39q10 13 18 29q-32 -108 -113 -187t-191 -106z" />
    <glyph glyph-name="shebeiweihu" unicode="&#xe6ee;" 
d="M988 465h-107q-14 0 -27 9.5t-18 22.5l-14 35q-7 12 -4.5 28t12.5 26l76 76q10 10 10 24t-10 24l-68 68q-10 10 -24 10t-24 -10l-76 -76q-10 -10 -26 -12.5t-29 3.5l-33 14q-14 4 -23.5 17.5t-9.5 27.5v108q0 14 -10 24t-24 10h-96q-14 0 -24 -10t-10 -24v-108
q0 -14 -9.5 -27.5t-23.5 -17.5l-33 -14q-13 -6 -29 -3.5t-26 12.5l-76 76q-10 10 -24.5 10t-23.5 -10l-68 -68q-10 -10 -10 -24t10 -24l75 -76q10 -10 12.5 -26t-3.5 -28l-15 -35q-4 -13 -17.5 -22.5t-27.5 -9.5h-106q-14 0 -24 -10t-10 -24v-96q0 -14 10 -24t24 -10h105
q14 0 27.5 -9.5t17.5 -23.5l14 -36q7 -12 4.5 -28t-12.5 -26l-74 -74q-10 -10 -10 -24.5t10 -24.5l68 -67q9 -10 23.5 -10t24.5 10l73 73q10 10 26 12.5t29 -3.5l36 -16q14 -4 23.5 -17t9.5 -28v-103q0 -14 10 -24t24 -10h96q14 0 24 10t10 24v103q0 15 9.5 28t22.5 17
l27 11l-52 52q-43 -15 -89 -15q-115 0 -196.5 81.5t-81.5 197t81.5 197t196.5 81.5t196.5 -81.5t81.5 -196.5q0 -46 -14 -88l52 -52l11 27q4 14 17 23.5t28 9.5h105q14 0 24 10t10 24v96q0 14 -10 24t-24 10v0v0zM721 271q-17 16 -10 36q24 68 3.5 133t-80.5 107
q-76 53 -166 26q10 -12 22 -24t28 -27t23 -22q35 -36 36 -76.5t-34 -74.5q-32 -32 -73 -31t-76 35q-4 5 -70 74q-6 -3 -9 -5q-21 -117 59 -193q90 -86 208 -47q26 9 44 -10q35 -35 126 -123.5t96 -93.5q22 -20 46.5 -21t45.5 17q27 23 27.5 51t-24.5 53q-33 33 -117 114
t-105 102v0zM891 -24q-13 0 -22.5 9.5t-9.5 23t9.5 23t23 9.5t23 -9.5t9.5 -23t-9.5 -23t-23.5 -9.5v0z" />
    <glyph glyph-name="zhuanjia" unicode="&#xe661;" 
d="M340 375q-49 41 -77 100.5t-28 127.5q0 121 80.5 206.5t194.5 85.5t195 -85.5t81 -206.5q0 -67 -28 -126.5t-76 -100.5q148 -56 241.5 -194t93.5 -310h-1009q0 171 92 308.5t240 194.5z" />
    <glyph glyph-name="yuancha" unicode="&#xe61a;" 
d="M957 384q-10 -193 -133 -316.5t-314 -128.5q-90 -2 -173.5 34t-144 97t-96 145.5t-32.5 173.5q4 126 61 225.5t158 157t230 60.5q88 2 170.5 -34t142.5 -97t95.5 -144.5t35.5 -172.5zM510 -7q76 -4 149 27t126.5 85t86 127.5t32.5 151.5q1 77 -31.5 150t-85.5 127
t-125.5 87t-149.5 33t-150 -32t-127 -86t-87 -127t-33 -151q0 -77 33 -151t86 -128.5t126.5 -86t149.5 -26.5v0zM720 573q0 -4 -1.5 -7.5t-5 -7.5t-5 -6t-6 -6.5l-5.5 -5.5q-99 -100 -126 -126q-16 -15 -16 -28.5t16 -29.5q42 -39 132 -132q7 -7 9.5 -10t6.5 -9.5t2.5 -12
t-7.5 -11.5t-11.5 -7.5t-12.5 2.5t-9.5 6.5l-9.5 9.5q-92 91 -132 132q-16 16 -29 16t-29 -16q-42 -43 -132 -132q-7 -7 -10 -9.5t-9.5 -6.5t-12 -2.5t-11.5 7.5t-7.5 11.5t2.5 12.5t6.5 9.5l9.5 9.5q94 96 132 132q16 16 16 29.5t-16 29.5q-42 39 -132 132l-9.5 9.5
t-6.5 9.5t-2.5 12.5t7.5 11.5t11.5 7.5t12.5 -2.5t9.5 -6.5l9.5 -9.5q92 -91 132 -132q16 -17 29 -16.5t29 16.5q32 33 135 135q21 20 37 11q11 -5 9 -20z" />
    <glyph glyph-name="wuxian" unicode="&#xe609;" 
d="M410 430q0 -29 15 -53.5t41 -37.5v-270q0 -16 -11 -27t-26 -11h-103q-19 0 -32.5 -13.5t-13.5 -32.5t13.5 -32.5t32.5 -13.5h372q19 0 32.5 13.5t13.5 32.5t-13.5 32.5t-32.5 13.5h-103q-15 0 -26 11t-11 27v270q26 13 41 37.5t15 53.5q0 43 -30 72.5t-72 29.5t-72 -29.5
t-30 -72.5zM262 427q0 -68 33 -128l3 -4q13 -25 41 -25q20 0 33.5 13.5t13.5 32.5q0 14 -7 25l-5 8q-20 37 -20 78q0 66 46.5 113.5t111.5 47.5t111.5 -47.5t46.5 -113.5q0 -41 -20 -78l-5 -8q-7 -11 -7 -25q0 -19 13.5 -32.5t33.5 -13.5q28 0 41 25l3 4q33 60 33 128
q0 105 -73 179.5t-177 74.5t-177 -74.5t-73 -179.5zM113 427q0 -135 80 -242l3 -5q14 -19 38 -19q19 0 32.5 14t13.5 33q0 16 -10 29l-3 5q-61 82 -61 185q0 128 89.5 219t216.5 91t216.5 -91t89.5 -219q0 -103 -61 -185l-3 -5q-10 -13 -10 -29q0 -19 13.5 -33t32.5 -14
q24 0 38 19l3 5q80 107 80 242q0 109 -53.5 202t-145.5 146.5t-200 53.5t-200 -53.5t-145.5 -146.5t-53.5 -202z" />
    <glyph glyph-name="dagou" unicode="&#xe612;" 
d="M512 767q-102 0 -190.5 -52t-140.5 -140.5t-52 -190.5t52 -190.5t140.5 -140.5t190.5 -52t190.5 52t140.5 140.5t52 190.5t-52 190.5t-140.5 140.5t-190.5 52zM692 499l-229 -268l-132 115q-8 4 -8 13.5t8 13.5q9 18 28 0l98 -87l202 240q9 9 14.5 9t13.5 -9q24 -8 5 -27
z" />
    <glyph glyph-name="mima" unicode="&#xe60a;" 
d="M700 543q0 4 -0.5 10.5t-4 25.5t-10 36t-20 38.5t-32 36.5t-49 25.5t-68 10.5t-67.5 -10t-49 -26t-32.5 -36t-20 -39.5t-10 -35.5t-3.5 -26l-1 -10v-79h-78v-367h524v368h-79v78zM543 262v-86h-53v86q-26 16 -26 45q0 22 15.5 37.5t37 15.5t37 -15.5t15.5 -37.5
q0 -30 -26 -45zM647 465h-261v78q0 10 1.5 22t9.5 33t20.5 36.5t38.5 27.5t60.5 12t60.5 -12t39 -27.5t20.5 -36t9 -33t1.5 -22.5v-78zM512 896q-139 0 -257 -68.5t-186.5 -186.5t-68.5 -257t68.5 -257t186.5 -186.5t257 -68.5t257 68.5t186.5 186.5t68.5 257t-68.5 257
t-186.5 186.5t-257 68.5zM512 -91q-96 0 -184 38t-151.5 101.5t-101.5 151.5t-38 184t38 184t101.5 151.5t151.5 101.5t184 38t184 -38t151.5 -101.5t101.5 -151.5t38 -184t-38 -184t-101.5 -151.5t-151.5 -101.5t-184 -38z" />
    <glyph glyph-name="redian1" unicode="&#xe60c;" 
d="M527 516q-37 0 -62 -26t-25 -64q0 -37 25.5 -62.5t61.5 -25.5q38 0 63.5 25t25.5 64q0 37 -26 63t-63 26zM848 738h-676q-42 0 -72 -29.5t-30 -71.5v-416q0 -42 30 -71.5t72 -29.5h261l84 -85l95 85h236q42 0 72 29.5t30 71.5v416q0 42 -30 71.5t-72 29.5zM373 313h-30
v106h-103v-106h-30v227h30v-91h103v91h30v-227zM631.5 367q-15.5 -28 -43.5 -43.5t-60 -15.5t-60 15.5t-44 43t-16 59.5q0 33 16 60.5t43.5 43.5t58.5 16q34 0 61.5 -15.5t43.5 -43.5t16 -60t-15.5 -60zM823 511h-66v-198h-30v198h-66v29h162v-29z" />
    <glyph glyph-name="zhongying" unicode="&#xe627;" 
d="M514 598q-6 10 -16 14v0q-6 2 -12 2h-1h-1q-6 -1 -9 -2v0v0h-0.5t-0.5 -1q-11 -5 -16 -15v-1l-157 -319q-5 -12 0 -23.5t17 -16t23.5 0.5t16.5 17l32 65h264l-139 277v0l-0.5 1zM566 359h-156l77 157zM929 256h-120v65q0 8 -6 14t-14 6h-21q-8 0 -14 -6t-6 -14v-65h-116
q-8 0 -14 -6t-6 -14v-140q0 -8 6 -14t14 -6h116v-95q0 -8 6 -14t14 -6h21q8 0 14 6t6 14v95h120q8 0 14 6t6 14v140q0 8 -6 14t-14 6zM748 130h-62q-9 0 -15 5.5t-6 14.5v32q0 9 6 14.5t15 5.5h62v-72zM892 150q0 -9 -6 -14.5t-15 -5.5h-62v72h62q9 0 15 -5.5t6 -14.5v-32z
M532 72q-26 -3 -52 -3q-97 0 -179 46.5t-129 126.5t-47 173q1 93 48.5 172t129 124.5t177.5 45.5q133 0 233 -84.5t118 -210.5q2 -9 9 -15t16 -6q12 0 19.5 8.5t5.5 19.5q-21 144 -135 241t-266 97q-109 0 -202.5 -52.5t-148 -142.5t-54.5 -196q-1 -108 53 -199t147.5 -144
t204.5 -53q30 0 60 4q9 1 15 8t6 16q0 11 -8.5 18.5t-20.5 5.5z" />
    <glyph glyph-name="redian2" unicode="&#xe60e;" 
d="M512 -128q-104 0 -199 40.5t-163.5 109t-109 163.5t-40.5 199t40.5 199t109 163.5t163.5 109t199 40.5t199 -40.5t163.5 -109t109 -163.5t40.5 -199t-40.5 -199t-109 -163.5t-163.5 -109t-199 -40.5zM972 468q-60 7 -103 -23t-40 -91q1 -29 12.5 -43t25 -15t32.5 -4
t31 -10q23 -15 16 -71q33 84 33 173q0 40 -7 84zM519 -41q15 34 40 56q4 3 24 19t23 20q12 13 25.5 38.5t19.5 34.5q7 12 7 18t-8.5 9.5t-17.5 4.5t-19.5 4t-15.5 9q-10 9 -19 33.5t-19 33.5l-15 5q-102 37 -104 12q-2 -23 -7 -41l-3 -25.5t5 -18t10.5 -14.5t14 -14.5
t15.5 -16.5q12 -16 16.5 -52t6.5 -42q0 -2 8 -29.5t13 -43.5v0zM191 723q12 9 30 14t33.5 7t39 1t35 -1.5t34.5 -3t24 -3.5q11 -1 18.5 -9.5t3.5 -18.5l-8 -18q-32 -39 41 11q4 18 12 29q10 13 25 10q2 0 5.5 -0.5t5.5 -1.5q14 -2 16 -21q1 -7 -0.5 -15.5t-2 -12.5t3.5 -9.5
t15 -11.5q33 -18 39 -41q9 -33 -9.5 -51.5t-51.5 -24.5q-23 -5 -41 -24.5t-29 -41t-30 -40.5t-45 -23q-32 -4 -47.5 -11t-14.5 -17t11.5 -20t31.5 -24q33 -22 52 -65q5 -13 -2.5 -24t-18.5 -10.5t-18 11.5q-9 21 -56 53t-55 53h-2t-3 1q-29 12 -47 34t-25 46t-8 56t2 57.5
t6.5 58t3.5 50.5q1 23 14 40q-64 -65 -99 -149.5t-35 -178.5q0 -122 58 -227t159 -168.5t222 -70.5q-5 11 -9.5 26t-8 31.5t-5.5 23.5q-3 10 -7.5 38t-11.5 48.5t-18 31.5q-31 28 -42 48q-8 24 -1 60.5t19 56.5q19 33 103 27q35 -3 64 -18.5t41 -45.5q11 -26 19 -32t38 -15
q19 -6 36 -19q9 -8 10.5 -20t-5 -27t-12 -26t-15.5 -26t-11 -16q-13 -21 -39.5 -45.5t-48 -48.5t-28.5 -51q90 7 169 47t138 106q1 4 10.5 32t12 37.5t8 31t7 38t0.5 32.5q1 -3 -33 1t-37 6q-66 38 -31 168q10 41 51.5 80t80.5 27q26 -8 32 -7q-1 1 -1 2.5t-1 2.5
q-5 4 -20.5 13.5t-28.5 17t-12 7.5q-18 -21 -29.5 -29.5t-33.5 -13.5q-10 -3 -19.5 3.5t-8.5 17.5q0 4 3.5 24.5t3.5 29.5t-3.5 22.5t-13.5 21.5q-8 6 -13 25q-4 13 5.5 21.5t21.5 6t16 -15.5q1 -6 16 -19.5t18 -18.5q8 -13 1 -48q8 8 13 12.5t14 9.5t15.5 4t17.5 -4
q-8 14 -18 30q-8 1 -15 3q-19 8 -16 28q1 3 -10.5 10.5t-24.5 15.5t-21 20t-1 23q-39 33 -84 57q4 -10 2 -20q-9 -29 -51 -31q-13 -1 -32.5 -23.5t-30.5 -26.5q-18 -7 -33 7t-18 32q0 2 -1 8.5t-1.5 8.5t-2 6.5t-3.5 6t-5.5 4t-8.5 3.5q-19 6 -30 14q-27 19 -8 54
q4 10 14 11h-5h-5q-92 0 -174.5 -33.5t-146.5 -94.5zM352 697q-24 3 -50 2t-47 -6t-33.5 -22t-10.5 -45q2 -19 -1.5 -54t-6 -61t6.5 -54t33 -42q17 28 55 46q11 5 35.5 12t41 17t27.5 29q27 45 43 61q4 4 10 6.5t10 3.5t13 2.5t10 2.5q45 10 -21 53l-3 2q-17 -19 -40 -25
q-16 -6 -43.5 -2t-37.5 20q-7 8 -5.5 19.5t4.5 17.5t10 17zM559 815l2.5 -0.5t3.5 -0.5q11 -4 20 -9q16 -8 22 -34l0.5 -2t1 -4.5t1 -5.5t1 -5.5t1.5 -4.5l1.5 -3l0.5 -1q3 4 8 10.5t7 9.5q14 17 31 23q5 2 15 2q-2 1 -5 3q-17 10 -25 26q-4 7 -8 10t-6.5 3t-10.5 -1.5
t-13 -2.5q-9 -1 -25 -6t-23 -7zM537 850q-5 0 -7 1q4 -1 6 -2l0.5 0.5z" />
    <glyph glyph-name="jiaosepeizhi" unicode="&#xe62c;" 
d="M658 361q-24 9 -52 17q51 26 85 71q54 70 54 159q0 108 -76 184t-184 76t-184 -76t-76 -184q0 -89 53 -159q35 -45 86 -71q-52 -14 -99 -38q-70 -36 -124.5 -93t-88.5 -128q-35 -73 -43 -153l-1 -8l6 -5q14 -15 30 -28l25 -22v6v4q0 114 55.5 209.5t151.5 151.5t209 56
q58 0 113 -16q27 27 60 47zM346 468.5q-58 57.5 -58 139t57.5 139.5t139 58t139.5 -58t58 -139.5t-58 -139t-139 -57.5t-139 57.5zM992 99v31q0 11 6.5 20t17.5 12q-8 38 -30 71q-22 -12 -39 5l-22 22q-17 18 -5 40q-33 21 -72 29q-3 -10 -11.5 -17t-19.5 -7h-31
q-11 0 -20 7t-12 17q-38 -8 -71 -29q12 -22 -6 -40l-21 -22q-18 -17 -40 -5q-21 -33 -29 -71q10 -3 17 -12t7 -20v-31q0 -11 -7 -20t-17 -12q8 -38 29 -71q22 12 40 -5l21 -22q18 -18 6 -40q33 -21 71 -29q3 10 12 17t20 7h31q11 0 20 -7t11 -17q39 8 72 29q-12 22 5 40
l22 22q18 17 39 5q22 33 30 71q-11 3 -17.5 12t-6.5 20zM801 0q-47 0 -80.5 33.5t-33.5 81t33.5 81t81 33.5t81 -33.5t33.5 -81t-33.5 -81t-81.5 -33.5v0zM801 115zM724 115q0 -33 22.5 -55.5t54.5 -22.5t55 22.5t23 55t-23 55t-55 22.5t-54.5 -22.5t-22.5 -54.5v0z" />
    <glyph glyph-name="icon-gougoucu" unicode="&#xe648;" 
d="M1009 685l-33 34q-14 14 -33.5 14t-33.5 -14l-513 -513l-273 274q-14 14 -33.5 14t-33.5 -14l-34 -34q-14 -14 -14 -33.5t14 -33.5l341 -340q14 -14 33.5 -14t33.5 14l579 579q14 14 14 33.5t-14 33.5z" />
    <glyph glyph-name="yanjing-zhengkai" unicode="&#xe622;" 
d="M902 393l-7 13q-39 72 -109 129l83 52q8 5 8 15q0 7 -5 12t-12 5q-6 0 -10 -2l-94 -59q-6 5 -13 9q-57 39 -119 57l41 126q1 2 1 5q0 7 -5.5 12t-12.5 5q-13 0 -16 -12l-42 -127q-38 8 -75 8t-75 -8l-42 127q-4 12 -16 12q-7 0 -12.5 -5t-5.5 -12q0 -3 1 -5l41 -126
q-62 -18 -119 -57q-7 -4 -14 -9l-93 59q-5 2 -10 2q-7 0 -12 -5t-5 -12q0 -10 8 -15l83 -52q-58 -48 -96 -107q-7 -11 -13 -22l-2 -5l-4 -7q-3 -5 -3 -9.5t3 -9.5l7 -12q51 -95 151 -161q110 -74 228 -74t228 74q100 66 152 161l7 13q2 4 2 8.5t-2 8.5zM862 381
q-47 -87 -143.5 -151.5t-203.5 -64.5t-203.5 64.5t-143.5 151.5v0l-2 4l2 3v1q5 9 11 19q52 81 143.5 138.5t192.5 57.5q107 0 203.5 -64.5t143.5 -151.5v0l2 -3v0v0zM514.5 487q42.5 0 73 -30t30.5 -72.5t-30.5 -72.5t-73 -30t-72.5 30t-30 72.5t30 72.5t72.5 30zM515 524
q-58 0 -99 -41t-41 -98.5t41 -98.5t99 -41t99 41t41 98.5t-41 98.5t-99 41z" />
    <glyph glyph-name="fanhui" unicode="&#xe607;" 
d="M533 -9l-393 393l393 393q9 9 9 22.5t-9.5 23t-23 9.5t-22.5 -9l-412 -412q-11 -11 -9 -26q-2 -16 9 -28l412 -412q9 -9 22.5 -9t23 9.5t9.5 23t-9 22.5z" />
    <glyph glyph-name="toastgougou" unicode="&#xe642;" 
d="M515 864h-3q-98 0 -186.5 -38t-153 -102.5t-102.5 -153t-38 -186.5t38 -186.5t102.5 -153t153 -102.5t186.5 -38t186.5 38t153 102.5t102.5 153t38 186.5v1q0 97 -37.5 185.5t-101.5 152.5t-152.5 102.5t-185.5 38.5v0zM515 -77h-4q-94 0 -179.5 36.5t-147 98t-98 147
t-36.5 179.5t36.5 179t98 147t147 98.5t179.5 36.5t179 -36.5t147 -98.5t98.5 -147t36.5 -179v-1q0 -93 -36 -178t-97.5 -146.5t-146 -98t-177.5 -37.5v0zM683 504l-219 -221l-116 117q-10 10 -24.5 10t-24.5 -10.5t-10 -24.5t10 -24l141 -141q6 -6 15 -9l9 -1q14 0 24 10
l244 245q10 10 10 24.5t-10 24.5t-24.5 10t-24.5 -10v0z" />
    <glyph glyph-name="yanjingdakai" unicode="&#xe623;" horiz-adv-x="1028" 
d="M949 409q5 7 4 16.5t-8 14.5q-5 5 -12 5q-9 0 -15 -9l-51 -81q-67 55 -133 87l33 80q3 9 0.5 18t-9.5 12q-4 2 -8 2q-13 0 -18 -12l-34 -83q-39 16 -86 27q-41 9 -80 10v88q0 9 -5.5 16t-14 7t-14 -7t-5.5 -16v-87q-75 -3 -152 -32l-32 82q-5 13 -18 13q-5 0 -8 -2
q-8 -4 -10.5 -13t0.5 -17l31 -78q-74 -34 -138 -86l-47 70q-5 9 -15 9q-7 0 -12 -5q-6 -5 -7 -14.5t4 -17.5l45 -70q-7 -6 -13 -12l-11 -11l-9.5 -9.5l-8 -8t-5.5 -6t-3.5 -4l-1.5 -1.5q-6 -7 -5.5 -16.5t6 -16t13.5 -6.5t14 7q1 1 8 9t23 23.5t35 30.5q82 70 175 105
q128 49 256 21q160 -36 310 -191q6 -6 14 -5.5t13.5 7.5t5 16.5t-6.5 16.5q-22 22 -44 42zM515 245zM425 245q0 -37 26.5 -63t63.5 -26t63.5 26t26.5 63t-26.5 63.5t-63.5 26.5t-63.5 -26.5t-26.5 -63.5z" />
    <glyph glyph-name="wifi1" unicode="&#xe7dc;" 
d="M514 404v0q-120 0 -205 -86q-10 -10 -10 -25t10.5 -25.5t25.5 -10.5t25 11q64 64 154 64q88 0 150 -61q11 -9 25 -9q15 0 25.5 10.5t10.5 25.5t-11 25q-83 81 -199 81h-1v0zM514 571v0q-93 0 -176.5 -35.5t-146.5 -98.5q-10 -11 -10 -26t10.5 -25.5t25.5 -10.5t25 11
q55 55 125 84t147 29h1q77 0 146 -28.5t121 -80.5q11 -11 26 -11t25.5 11t10.5 25q0 16 -11 27q-63 61 -145 95t-173 34h-1v0zM952 561q-86 85 -199 132t-239 47q-127 0 -241.5 -48.5t-200.5 -135.5q-11 -11 -11 -26t10.5 -25.5t25.5 -10.5t26 11q78 79 179 121t212 42
q110 0 210 -41t178 -117q10 -10 25 -10t25.5 10.5t10.5 25t-11 25.5zM429 117q0 -35 24.5 -59.5t59 -24.5t59 24.5t24.5 59.5v0q0 35 -24.5 59t-59 24t-59 -24t-24.5 -59z" />
    <glyph glyph-name="mimayanjing" unicode="&#xe76b;" 
d="M512 118q-76 0 -155 25.5t-134.5 58t-106.5 73t-71 60.5t-29 30l-9 11l8 10q55 66 145 132q180 132 352 132t352 -132q39 -29 76 -62.5t50.5 -48.5t18.5 -21l8 -11l-9 -10q-11 -12 -29.5 -30.5t-70.5 -60t-107 -73.5t-134 -57.5t-155 -25.5zM50 376q19 -20 43.5 -41.5
t73.5 -57t98.5 -61.5t116 -46t130.5 -20t130.5 20t116 46t98.5 61.5t73 57t44 41.5q-20 22 -44 44.5t-73 60.5t-98 66t-116 49.5t-131 21.5t-131 -21.5t-116.5 -49.5t-98 -66t-72.5 -60.5t-44 -44.5zM512 246q-57 0 -97.5 40.5t-40.5 97.5t40.5 97.5t97.5 40.5t97.5 -40.5
t40.5 -97.5t-40.5 -97.5t-97.5 -40.5zM512 489q-44 0 -75 -31t-31 -74.5t31 -74.5t75 -31t75 31t31 74q0 45 -31 75.5t-75 30.5z" />
    <glyph glyph-name="renyuanpeizhi" unicode="&#xe613;" 
d="M794 -95h-28q-16 0 -28.5 10t-16.5 25q-13 -8 -29 -6t-27 13l-19 19q-12 12 -13.5 28t5.5 29q-15 4 -24.5 16.5t-9.5 28.5v27q0 16 9.5 28.5t24.5 16.5q-6 11 -6 24v0q0 19 14 33l19 19q11 11 27 13t29 -6q4 16 16.5 25.5t28.5 9.5h28q16 0 28.5 -10t16.5 -25q13 8 29 6
t27 -13l20 -19q11 -12 13 -28t-6 -29q15 -4 25 -16.5t10 -28.5v-27q0 -16 -10 -28.5t-25 -16.5q8 -13 6 -29t-13 -28l-20 -19q-11 -11 -27 -13t-29 6q-4 -15 -16.5 -25t-28.5 -10v0zM456 -27h-1q-82 0 -151.5 10t-108.5 22t-70 28t-39.5 23t-12.5 12l-4 5l-1 6
q0 5 -0.5 13.5t1 29.5t6 42t15 49t26 52.5t42 50t61.5 45.5l114 48q10 12 12 25v6q-36 27 -57 72q-26 9 -35 48q-5 17 -3 42t12 39q-9 112 41 167q44 49 131 54v1h39v-1q90 -5 135 -54q49 -55 41 -167q10 -14 11.5 -39t-3.5 -42q-9 -39 -35 -48q-20 -45 -56 -72v-6
q2 -13 12 -25l112 -47q47 -27 81 -65l24 -29l-37 -3q-90 -8 -150.5 -74t-60.5 -156q0 -17 3 -38l4 -21l-21 -1q-42 -2 -77 -2zM106 90q12 -10 31.5 -20t60 -25t107.5 -24.5t149 -9.5l2 -19v19q26 0 54 1q-2 12 -2 23q0 95 58.5 168t149.5 94q-19 17 -43 30l-118 50l-3 2
q-22 22 -25 53v1l2 27l8 6q35 24 54 70l4 12h13q4 0 7 8q7 13 7.5 34.5t-4.5 27.5l-9 5l1 13q9 102 -31 146q-38 41 -122 42h-3q-85 -1 -122 -42q-40 -44 -31 -146l1 -13l-10 -5q-4 -6 -4 -27.5t7 -34.5q4 -8 8 -8h12l5 -12q18 -46 54 -70l8 -6l1 -27v-1q-3 -31 -25 -53
l-2 -2l-121 -51q-35 -20 -61 -49t-39 -55t-20 -55.5t-8 -46t-1 -30.5v0zM718 -11l13 -6q6 -4 14 -6l13 -5v-20q0 -8 8 -8h28q8 0 8 8v20l13 5q7 2 14 6l13 6l15 -15q5 -5 11 0l19 20q6 5 0 11l-14 15l6 12q4 7 6 15l5 13h20q8 0 8 8v27q0 8 -8 8h-20l-5 13q-2 8 -6 15l-6 12
l14 15q6 6 0 12l-19 19q-6 5 -11 0l-15 -15l-12 6q-7 4 -15 7l-13 4v20q0 9 -8 9h-28q-8 0 -8 -9v-20l-13 -5q-7 -2 -14 -6l-13 -6l-14 15q-6 6 -12 0l-19 -19q-3 -3 -3 -6.5t3 -5.5l14 -15l-6 -12q-4 -8 -6 -14l-4 -14h-21q-8 0 -8 -8v-27q0 -8 8 -8h21l4 -13q3 -8 6 -15
l7 -12l-15 -15q-6 -6 0 -11l19 -20q6 -5 12 0l14 15v0z" />
    <glyph glyph-name="wodeiconxuanzhongzhuangtai" unicode="&#xe60b;" 
d="M955 -91h-46h-840q0 94 41 180q39 82 109 142q17 15 34 27q37 25 85 15q25 -5 76 -28q66 -31 98 -31t97 31q51 23 76 29q48 10 85 -16q20 -14 37 -28q69 -60 108 -143q40 -85 40 -178v0zM955 -91zM512 288q-114 0 -195 77t-81 187t81 188q81 77 195 77t195 -77
q81 -78 81 -188t-81 -187t-195 -77v0z" />
    <glyph glyph-name="ccgl-xitongjichupeizhiguanli-3" unicode="&#xe61b;" 
d="M628 -64q-18 0 -33 13q-9 8 -14 17q-3 4 -5 8q-7 21 -26 37q-16 14 -37.5 14t-39.5 -14q-19 -16 -27 -36q-8 -21 -26 -30q-27 -15 -69 -3q-17 5 -34 12q-19 8 -34 19q-16 11 -26 24q-9 13 -9 29q-1 16 9 37q7 15 5 34q-1 17 -16 33q-7 8 -17 10q-12 3 -22 3l-5 -1
q-16 0 -32 -6q-23 -6 -44 3q-17 6 -31 27q-10 14 -18 33q-7 18 -12 37q-4 22 -2 38q5 36 36 46q20 8 38 29q15 17 15 37q0 21 -15 37q-17 19 -39 28q-17 5 -27 25q-9 17 -9 34q0 15 4 33q4 16 11 32t16 29q12 17 26 25q12 8 25 8q3 0 6 -1q9 -1 20 -4q22 -9 45 -6
q21 3 37 18q6 6 9 16q4 13 5 25q1 13 0 23q-1 7 -2 15q-2 6 -3 13q-3 16 3 30q8 19 29 33q16 11 36 18q18 7 36 11t30 4q24 0 39 -17q10 -12 14 -25q7 -17 25 -31q16 -13 37.5 -12.5t39.5 12.5q17 13 24 32q7 14 18 25q16 16 35 16q16 0 34 -5q17 -4 34 -11q18 -8 33 -20
q16 -13 25 -29q11 -16 7 -35q-3 -13 -6 -19q-8 -18 -5 -39q3 -20 19 -36q14 -14 36 -16q25 -1 46 8q9 7 25 7q3 0 6 -1q20 -2 34 -15q18 -17 31 -48q11 -29 15 -58q4 -27 -10 -45q-12 -14 -26 -20q-21 -7 -36 -26q-14 -17 -14 -39.5t11 -38.5q12 -16 31 -23q3 -1 4 -2
q8 -4 15 -9q17 -14 23 -35q3 -19 -1 -39q-3 -18 -10 -36q-8 -19 -19 -34q-12 -18 -30 -26q-28 -15 -58 -3l-18 3q-10 2 -21 1t-22 -5q-7 -2 -12 -8q-17 -16 -19 -36q-3 -22 6 -41q15 -31 -5 -62q-9 -12 -25 -23q-13 -8 -29 -16q-16 -7 -34.5 -11.5t-33.5 -4.5v0zM207 197
q16 0 34 -4q26 -6 45 -26q27 -29 30 -65q3 -35 -10 -62q-5 -9 -5 -11q4 -6 13 -12q11 -8 24 -13q14 -6 28 -10q21 -6 28 -2q15 36 45 60q33 27 74 27t72 -27q27 -23 40 -53q2 -3 3 -6q0 -1 2 -3q8 1 19 3q13 3 24 8q13 6 23 12q8 6 10 9q2 4 0 8q-15 34 -10 70q4 38 32 67
q14 16 36 23q16 5 33 7q18 1 35 -1q16 -3 26 -6q7 -3 10 -3q2 0 7 2.5t10 10.5q8 10 13 22q5 14 7 26q2 11 1 17v1l-4 4t-5 3q-33 13 -54 42q-22 30 -22 70q0 41 26 73q24 31 59 43v0l2 3v4q-3 22 -12 45q-9 20 -18 29l-3 1q-36 -17 -75 -14q-41 3 -70 31q-28 28 -34 66
q-6 37 9 70q1 2 1 5q-4 7 -12 13q-9 8 -20 12q-13 6 -25 9q-10 2 -19 3q-5 -5 -6 -8q-11 -32 -43 -54q-31 -23 -72 -23t-70 24q-29 23 -41 54q-2 5 -5 8l-17 -4q-14 -3 -28 -8q-13 -5 -25 -13q-6 -5 -9 -9q1 -5 2 -8q1 -2 1 -4q1 -7 3 -20q1 -15 0 -33q-2 -17 -8 -37
q-7 -22 -22 -37q-30 -28 -68 -34q-37 -5 -70 9q-3 1 -6 1q-4 -2 -8 -8q-6 -9 -11 -21q-5 -11 -8 -23t-3 -20q0 -4 2 -9q1 0 -2 1q35 -14 61 -42q29 -32 29 -74q0 -41 -29 -73q-26 -30 -59 -43l-1 -4q-2 -7 1 -18q3 -15 9 -28q6 -14 13 -25q3 -4 5 -6v0q4 -1 6 -1q27 7 48 8
q3 1 8 1v0zM511 161q-46 0 -87 17.5t-71.5 48.5t-47.5 71q-18 41 -18 87.5t18 86.5q17 41 48 71q30 30 70.5 47.5t87 17.5t88.5 -17q40 -17 71 -48q31 -30 48.5 -70.5t17.5 -87t-18 -87.5q-17 -40 -47.5 -71t-72 -48.5t-87.5 -17.5zM511 554q-35 0 -66 -13t-54 -36t-37 -54
q-13 -31 -13 -66t13.5 -65.5t36.5 -54.5q23 -23 54 -37q31 -13 66.5 -13t65.5 14q32 13 55 36.5t37 54.5q13 30 13 65t-13 66q-14 31 -37 54t-54.5 36t-66.5 13z" />
    <glyph glyph-name="yuanquanchasvg" unicode="&#xe6d7;" 
d="M511 832q-91 0 -174 -35.5t-142.5 -95t-95 -142.5t-35.5 -174t35.5 -173.5t95 -142.5t142.5 -95.5t174 -35.5t173.5 35.5t142.5 95.5t95.5 142.5t35.5 173.5t-35.5 174t-95.5 142.5t-142.5 95t-173.5 35.5zM738.5 158.5q-12.5 -12.5 -30 -12.5t-29.5 12l-167 167
l-167 -167q-12 -12 -29.5 -12t-30 12.5t-12.5 30t13 29.5l167 167l-167 167q-12 12 -12 29.5t12 29.5t29.5 12t29.5 -12l167 -167l167 167q12 12 29.5 12t30 -12t12.5 -29.5t-13 -29.5l-166 -167l166 -167q13 -13 13 -30t-12.5 -29.5z" />
  </font>
</defs>
</svg>
